:SAMPLES-PER-SECOND 30
:FULLY-SPECIFIED
:DEGREES
47
root  -63.1535 19.7674 -1.14152 110.236 81.1983 129.516
RightUpLeg  -65.5644 1.05817 -0.81828
RightLeg  115.168 17.817 -11.7513
RightFoot  -29.4803 -0.0610329 -0.412746
RightToes  5.82075e-010 -1.59028e-015 9.93923e-017
Spine  62.0075 -3.93275 0.724698
Spine1  10.481 -2.99619 -1.91128
HEad  -30.6458 -0.941369 6.03156
LeftShoulder1  9.93923e-017 0 1.22299e-017
LeftArm  -7.82459 -56.7198 -68.7653
LeftForeArm  -132.121 -49.7176 167.432
LeftHand  0.631585 5.5447 10.1639
RightShoulder  1.98785e-016 -4.96962e-017 1.55301e-017
RightArm  -2.28255 43.0206 69.2115
RightForeArm  -91.3023 45.5882 -155.25
RightHand  3.85132 -16.6639 -24.1986
LeftUpLeg  -49.2268 -2.53685 14.1833
LeftLeg  132.304 8.52256 -24.0668
LeftFoot  13.4601 4.59562 -18.9128
LeftToes  1.8463e-010 2.29954e-012 -3.51709e-011
48
root  -61.8558 19.6513 -1.05806 100.596 80.058 121.878
RightUpLeg  -60.9442 2.03342 -2.2932
RightLeg  118.625 18.1676 -10.724
RightFoot  -32.6288 0.291309 1.70049
RightToes  5.82075e-010 -1.59028e-015 9.93923e-017
Spine  61.3816 -3.43265 0.697929
Spine1  12.6827 -2.29378 -3.88288
HEad  -29.7412 -0.860264 5.8419
LeftShoulder1  9.93923e-017 0 1.22299e-017
LeftArm  -6.71424 -55.8112 -70.2293
LeftForeArm  -132.663 -49.3068 167.791
LeftHand  0.605855 5.46386 10.6075
RightShoulder  1.98785e-016 -4.96962e-017 1.55301e-017
RightArm  -1.06249 42.7596 70.5006
RightForeArm  -90.9714 45.6732 -155.118
RightHand  3.73065 -16.4078 -23.8096
LeftUpLeg  -54.2764 -1.26176 9.26299
LeftLeg  131.538 8.62805 -24.7583
LeftFoot  4.42501 2.92058 -18.4585
LeftToes  1.8463e-010 2.29954e-012 -3.51709e-011
49
root  -60.5698 19.4194 -0.955403 94.8416 78.8988 118.36
RightUpLeg  -55.9534 2.67559 -3.45578
RightLeg  122.332 18.42 -9.59508
RightFoot  -35.2427 0.781636 4.00374
RightToes  5.82075e-010 -1.59028e-015 9.93923e-017
Spine  61.3169 -2.86493 0.466142
Spine1  14.1707 -1.60915 -5.62766
HEad  -29.1647 -0.674119 5.60737
LeftShoulder1  9.93923e-017 0 1.22299e-017
LeftArm  -5.94629 -54.9967 -70.8657
LeftForeArm  -132.45 -49.237 167.829
LeftHand  0.572261 5.34509 10.9326
RightShoulder  1.98785e-016 -4.96962e-017 1.55301e-017
RightArm  -0.285223 42.474 71.717
RightForeArm  -91.1605 45.7479 -155.034
RightHand  3.63862 -16.2289 -23.4434
LeftUpLeg  -60.4096 -0.664145 4.3826
LeftLeg  129.513 6.964 -24.7284
LeftFoot  -2.64204 1.42018 -14.8996
LeftToes  1.8463e-010 2.29954e-012 -3.51709e-011
50
root  -59.3718 19.0239 -0.841317 90.9489 77.6445 116.701
RightUpLeg  -51.2157 2.91335 -4.21397
RightLeg  126.072 19.1139 -9.12231
RightFoot  -37.4384 1.36812 6.34874
RightToes  5.82075e-010 -1.59028e-015 9.93923e-017
Spine  61.5296 -2.12049 -0.285231
Spine1  15.231 -1.06701 -7.15029
HEad  -28.9421 -0.560545 5.40215
LeftShoulder1  9.93923e-017 0 1.22299e-017
LeftArm  -5.96066 -54.4217 -70.4224
LeftForeArm  -131.773 -49.3389 167.701
LeftHand  0.551335 5.23638 10.6649
RightShoulder  1.98785e-016 -4.96962e-017 1.55301e-017
RightArm  0.308563 41.9776 73.0321
RightForeArm  -91.1802 45.7471 -155.036
RightHand  3.4987 -15.9039 -23.0335
LeftUpLeg  -66.9972 -0.543814 -0.714779
LeftLeg  125.784 3.13853 -23.3548
LeftFoot  -8.39752 0.474337 -11.0885
LeftToes  1.8463e-010 2.29954e-012 -3.51709e-011
51
root  -58.3082 18.4271 -0.755026 88.2975 76.3471 116.118
RightUpLeg  -47.1538 2.49573 -4.62602
RightLeg  129.786 20.5474 -9.41651
RightFoot  -39.2973 2.05005 8.79945
RightToes  5.82075e-010 -1.59028e-015 9.93923e-017
Spine  61.613 -1.37725 -1.28927
Spine1  16.196 -0.711603 -8.44321
HEad  -28.9034 -0.699629 5.68016
LeftShoulder1  9.93923e-017 0 1.22299e-017
LeftArm  -6.7499 -54.2625 -69.3547
LeftForeArm  -130.968 -49.5186 167.502
LeftHand  0.414682 4.74337 11.4811
RightShoulder  1.98785e-016 -4.96962e-017 1.55301e-017
RightArm  0.858763 41.3193 74.3314
RightForeArm  -90.8948 45.7261 -155.045
RightHand  3.35592 -15.5836 -22.5448
LeftUpLeg  -72.6606 -0.946018 -5.6025
LeftLeg  119.718 -2.36348 -20.0531
LeftFoot  -11.9816 0.0923197 -10.6691
LeftToes  1.8463e-010 2.29954e-012 -3.51709e-011
52
root  -57.3843 17.6916 -0.729965 86.2491 75.1685 115.81
RightUpLeg  -43.9672 1.55333 -4.98402
RightLeg  133.511 22.3671 -9.85539
RightFoot  -40.5138 2.73643 11.1922
RightToes  5.82075e-010 -1.59028e-015 9.93923e-017
Spine  61.4397 -0.73617 -2.23471
Spine1  17.0798 -0.415047 -9.64402
HEad  -28.8204 -0.992829 6.25556
LeftShoulder1  9.93923e-017 0 1.22299e-017
LeftArm  -7.34285 -54.4126 -68.6275
LeftForeArm  -131.183 -49.595 167.458
LeftHand  0.419538 4.76159 11.5082
RightShoulder  1.98785e-016 -4.96962e-017 1.55301e-017
RightArm  1.28289 40.7326 75.3126
RightForeArm  -90.5179 45.8446 -154.865
RightHand  3.28149 -15.4527 -22.1508
LeftUpLeg  -76.6994 -1.34689 -9.58235
LeftLeg  111.467 -7.92765 -14.3741
LeftFoot  -13.0709 -0.00581294 -10.7456
LeftToes  1.8463e-010 2.29954e-012 -3.51709e-011
53
root  -56.5454 16.9524 -0.785399 83.8069 74.2736 114.721
RightUpLeg  -41.3919 0.678786 -5.58411
RightLeg  137.273 23.8624 -9.75806
RightFoot  -40.862 3.26099 13.153
RightToes  5.82075e-010 -1.59028e-015 9.93923e-017
Spine  61.2265 -0.228275 -3.0331
Spine1  17.8526 -0.00165673 -10.9781
HEad  -28.659 -1.02442 6.39466
LeftShoulder1  9.93923e-017 0 1.22299e-017
LeftArm  -7.64486 -54.5555 -68.4063
LeftForeArm  -131.531 -49.6318 167.455
LeftHand  0.453404 4.87018 11.1633
RightShoulder  1.98785e-016 -4.96962e-017 1.55301e-017
RightArm  1.57884 40.4392 75.8878
RightForeArm  -90.1141 46.0724 -154.539
RightHand  3.25991 -15.4464 -21.9245
LeftUpLeg  -79.1337 -2.54422 -11.655
LeftLeg  102.13 -11.7522 -6.78912
LeftFoot  -13.083 -0.00656081 -10.9354
LeftToes  1.8463e-010 2.29954e-012 -3.51709e-011
54
root  -55.7415 16.1925 -0.93527 79.8494 74.178 111.676
RightUpLeg  -39.3421 -0.105511 -5.90415
RightLeg  141.177 24.8662 -9.09027
RightFoot  -40.753 3.52956 14.2837
RightToes  5.82075e-010 -1.59028e-015 9.93923e-017
Spine  61.0047 -0.111393 -3.04259
Spine1  18.5108 0.527512 -12.2942
HEad  -28.5875 -0.660907 5.92487
LeftShoulder1  9.93923e-017 0 1.22299e-017
LeftArm  -8.02557 -54.5173 -68.3081
LeftForeArm  -131.479 -49.5899 167.484
LeftHand  0.409952 4.70769 11.3406
RightShoulder  1.98785e-016 -4.96962e-017 1.55301e-017
RightArm  1.86416 40.5545 76.1201
RightForeArm  -90.2003 46.1028 -154.505
RightHand  3.2253 -15.4193 -21.6189
LeftUpLeg  -80.3593 -2.40373 -12.4054
LeftLeg  94.2493 -12.9854 -1.53464
LeftFoot  -13.3528 -0.0329916 -11.0654
LeftToes  1.8463e-010 2.29954e-012 -3.51709e-011
55
root  -54.9562 15.4586 -1.15545 75.3278 74.792 107.387
RightUpLeg  -37.5318 -1.09779 -5.63942
RightLeg  144.65 25.956 -8.55068
RightFoot  -41.032 3.80992 15.2458
RightToes  5.82075e-010 -1.59028e-015 9.93923e-017
Spine  60.7373 -0.476329 -2.41345
Spine1  19.038 1.058 -13.5751
HEad  -28.7187 -0.28304 5.33455
LeftShoulder1  9.93923e-017 0 1.22299e-017
LeftArm  -8.45396 -54.3901 -68.2264
LeftForeArm  -131.621 -49.3851 167.654
LeftHand  0.418467 4.74964 11.4231
RightShoulder  1.98785e-016 -4.96962e-017 1.55301e-017
RightArm  2.23879 41.0804 76.0317
RightForeArm  -90.3603 45.9682 -154.693
RightHand  3.19571 -15.3812 -21.4067
LeftUpLeg  -80.3294 -3.55236 -11.0593
LeftLeg  88.1989 -12.9605 2.77529
LeftFoot  -13.8801 -0.0865014 -12.468
LeftToes  1.8463e-010 2.29954e-012 -3.51709e-011
56
root  -54.1522 14.8171 -1.48167 69.3129 76.2449 100.889
RightUpLeg  -35.5462 -2.33688 -4.73623
RightLeg  147.342 27.2245 -8.3086
RightFoot  -42.0654 4.20045 16.1677
RightToes  5.82075e-010 -1.59028e-015 9.93923e-017
Spine  60.5883 -1.31283 -0.974176
Spine1  19.0009 1.50447 -14.61
HEad  -29.0223 -0.0821093 4.74884
LeftShoulder1  9.93923e-017 0 1.22299e-017
LeftArm  -8.90703 -54.307 -68.1678
LeftForeArm  -131.546 -49.154 167.827
LeftHand  0.431763 4.8021 11.4341
RightShoulder  1.98785e-016 -4.96962e-017 1.55301e-017
RightArm  2.73512 41.9503 75.7129
RightForeArm  -90.4449 45.8704 -154.827
RightHand  3.2519 -15.5592 -21.4506
LeftUpLeg  -79.9006 -2.67464 -10.1502
LeftLeg  84.9394 -12.6404 4.91391
LeftFoot  -11.7994 0.0960397 -10.1333
LeftToes  1.8463e-010 2.29954e-012 -3.51709e-011
57
root  -53.2289 14.4473 -1.87423 59.1559 77.434 90.0464
RightUpLeg  -32.0116 -2.82082 -4.72921
RightLeg  148.95 27.891 -8.07297
RightFoot  -44.0569 4.58838 16.4683
RightToes  5.82075e-010 -1.59028e-015 9.93923e-017
Spine  61.1946 -1.6817 0.118392
Spine1  18.0264 1.79164 -15.3495
HEad  -29.5718 0.28835 3.70482
LeftShoulder1  9.93923e-017 0 1.22299e-017
LeftArm  -9.8023 -54.3675 -67.8073
LeftForeArm  -130.608 -48.9778 167.893
LeftHand  0.24356 4.15098 12.4227
RightShoulder  1.98785e-016 -4.96962e-017 1.55301e-017
RightArm  3.29682 43.0946 75.3864
RightForeArm  -90.4768 45.8762 -154.821
RightHand  3.40764 -15.9942 -21.7462
LeftUpLeg  -80.0978 -4.3333 -6.86187
LeftLeg  83.9819 -12.3717 9.53032
LeftFoot  -5.03547 0.716738 -9.76889
LeftToes  1.8463e-010 2.29954e-012 -3.51709e-011
58
root  -52.2427 14.386 -2.31364 45.6613 77.5672 75.6559
RightUpLeg  -28.3585 -2.11982 -6.43016
RightLeg  149.588 27.3511 -7.56217
RightFoot  -45.8273 4.53391 15.3769
RightToes  5.82075e-010 -1.59028e-015 9.93923e-017
Spine  62.4051 -1.24022 0.350493
Spine1  16.6131 1.90098 -15.429
HEad  -30.5442 0.9787 2.18088
LeftShoulder1  9.93923e-017 0 1.22299e-017
LeftArm  -11.0557 -54.7252 -67.0169
LeftForeArm  -129.814 -48.7533 168.007
LeftHand  0.0325223 3.47412 13.5864
RightShoulder  1.98785e-016 -4.96962e-017 1.55301e-017
RightArm  3.86538 44.4054 75.104
RightForeArm  -90.5515 45.8511 -154.859
RightHand  3.59042 -16.4643 -22.184
LeftUpLeg  -81.2108 -3.67266 -4.8285
LeftLeg  85.7153 -12.7195 11.2285
LeftFoot  1.78898 1.18319 -8.87782
LeftToes  1.8463e-010 2.29954e-012 -3.51709e-011
59
root  -51.2616 14.6364 -2.75765 34.5495 77.2887 62.3819
RightUpLeg  -27.2944 -1.3097 -8.62876
RightLeg  149.117 26.1745 -7.11543
RightFoot  -45.758 4.05291 13.7833
RightToes  5.82075e-010 -1.59028e-015 9.93923e-017
Spine  62.7434 -0.657621 0.0974949
Spine1  15.7187 1.86833 -15.1602
HEad  -31.7858 1.55218 1.15717
LeftShoulder1  9.93923e-017 0 1.22299e-017
LeftArm  -12.191 -55.4889 -66.0566
LeftForeArm  -130.183 -48.5956 168.152
LeftHand  0.045347 3.55349 13.8606
RightShoulder  1.98785e-016 -4.96962e-017 1.55301e-017
RightArm  4.09639 45.6656 74.5299
RightForeArm  -90.5844 45.7947 -154.935
RightHand  3.73226 -16.7193 -22.8327
LeftUpLeg  -83.4101 -2.81157 -3.41764
LeftLeg  88.1658 -13.2947 11.4346
LeftFoot  4.84087 1.37283 -8.43265
LeftToes  1.8463e-010 2.29954e-012 -3.51709e-011
